<mxfile host="app.diagrams.net" modified="2022-05-24T14:52:17.344Z" agent="5.0 (Windows NT 10.0; Win64; x64) AppleWebKit/537.36 (KHTML, like Gecko) Chrome/101.0.4951.67 Safari/537.36" etag="aZ4g_rwlEsgLjpEecisT" version="18.1.2" type="github">
  <diagram id="6a731a19-8d31-9384-78a2-239565b7b9f0" name="Page-1">
    <mxGraphModel dx="1108" dy="523" grid="1" gridSize="10" guides="1" tooltips="1" connect="1" arrows="1" fold="1" page="1" pageScale="1" pageWidth="1169" pageHeight="827" background="none" math="0" shadow="0">
      <root>
        <mxCell id="0" />
        <mxCell id="1" parent="0" />
        <mxCell id="1350" value="INPUT" style="ellipse;whiteSpace=wrap;html=1;shadow=0;fontFamily=Helvetica;fontSize=20;fontColor=#FFFFFF;align=center;strokeWidth=3;fillColor=#1699D3;strokeColor=none;" parent="1" vertex="1">
          <mxGeometry x="605" y="745" width="120" height="120" as="geometry" />
        </mxCell>
        <mxCell id="1352" value="OUTPUT" style="ellipse;whiteSpace=wrap;html=1;shadow=0;fontFamily=Helvetica;fontSize=20;fontColor=#FFFFFF;align=center;strokeWidth=3;fillColor=#E85642;strokeColor=none;" parent="1" vertex="1">
          <mxGeometry x="1080" y="750" width="120" height="120" as="geometry" />
        </mxCell>
        <mxCell id="1358" value="MAP2" style="rounded=1;fillColor=#64BBE2;strokeColor=none;strokeWidth=3;shadow=0;html=1;fontColor=#FFFFFF;" parent="1" vertex="1">
          <mxGeometry x="350" y="690" width="130" height="40" as="geometry" />
        </mxCell>
        <mxCell id="1359" style="endArrow=none;strokeWidth=6;strokeColor=#1699D3;html=1;" parent="1" source="1515" target="1350" edge="1">
          <mxGeometry relative="1" as="geometry" />
        </mxCell>
        <mxCell id="1361" style="endArrow=none;strokeWidth=6;strokeColor=#E85642;html=1;" parent="1" source="1515" target="1352" edge="1">
          <mxGeometry relative="1" as="geometry" />
        </mxCell>
        <mxCell id="1367" value="Phase Sensor" style="rounded=1;fillColor=#64BBE2;strokeColor=none;strokeWidth=3;shadow=0;html=1;fontColor=#FFFFFF;" parent="1" vertex="1">
          <mxGeometry x="500" y="960" width="130" height="40" as="geometry" />
        </mxCell>
        <mxCell id="1368" value="Lambda2" style="rounded=1;fillColor=#64BBE2;strokeColor=none;strokeWidth=3;shadow=0;html=1;fontColor=#FFFFFF;" parent="1" vertex="1">
          <mxGeometry x="350" y="960" width="130" height="40" as="geometry" />
        </mxCell>
        <mxCell id="1369" value="Lambda1" style="rounded=1;fillColor=#64BBE2;strokeColor=none;strokeWidth=3;shadow=0;html=1;fontColor=#FFFFFF;" parent="1" vertex="1">
          <mxGeometry x="350" y="895" width="130" height="40" as="geometry" />
        </mxCell>
        <mxCell id="1370" value="EGT2" style="rounded=1;fillColor=#64BBE2;strokeColor=none;strokeWidth=3;shadow=0;html=1;fontColor=#FFFFFF;" parent="1" vertex="1">
          <mxGeometry x="350" y="825" width="130" height="40" as="geometry" />
        </mxCell>
        <mxCell id="1371" value="EGT1" style="rounded=1;fillColor=#64BBE2;strokeColor=none;strokeWidth=3;shadow=0;html=1;fontColor=#FFFFFF;" parent="1" vertex="1">
          <mxGeometry x="350" y="760" width="130" height="40" as="geometry" />
        </mxCell>
        <mxCell id="1372" value="MAP1" style="rounded=1;fillColor=#64BBE2;strokeColor=none;strokeWidth=3;shadow=0;html=1;fontColor=#FFFFFF;" parent="1" vertex="1">
          <mxGeometry x="350" y="620" width="130" height="40" as="geometry" />
        </mxCell>
        <mxCell id="1373" value="Inlet Temperature" style="rounded=1;fillColor=#64BBE2;strokeColor=none;strokeWidth=3;shadow=0;html=1;fontColor=#FFFFFF;" parent="1" vertex="1">
          <mxGeometry x="500" y="620" width="130" height="40" as="geometry" />
        </mxCell>
        <mxCell id="1374" value="Oil Temperature" style="rounded=1;fillColor=#64BBE2;strokeColor=none;strokeWidth=3;shadow=0;html=1;fontColor=#FFFFFF;" parent="1" vertex="1">
          <mxGeometry x="660" y="620" width="130" height="40" as="geometry" />
        </mxCell>
        <mxCell id="1375" value="Revolution Sensor" style="rounded=1;fillColor=#64BBE2;strokeColor=none;strokeWidth=3;shadow=0;html=1;fontColor=#FFFFFF;" parent="1" vertex="1">
          <mxGeometry x="810" y="620" width="130" height="40" as="geometry" />
        </mxCell>
        <mxCell id="1376" value="Fuel Pressure" style="rounded=1;fillColor=#64BBE2;strokeColor=none;strokeWidth=3;shadow=0;html=1;fontColor=#FFFFFF;" parent="1" vertex="1">
          <mxGeometry x="660" y="960" width="130" height="40" as="geometry" />
        </mxCell>
        <mxCell id="1377" value="" style="edgeStyle=none;endArrow=none;strokeWidth=3;strokeColor=#64BBE2;html=1;" parent="1" source="1350" target="1376" edge="1">
          <mxGeometry x="-140" y="530" width="100" height="100" as="geometry">
            <mxPoint x="-140" y="630" as="sourcePoint" />
            <mxPoint x="-40" y="530" as="targetPoint" />
          </mxGeometry>
        </mxCell>
        <mxCell id="1378" value="" style="edgeStyle=none;endArrow=none;strokeWidth=3;strokeColor=#64BBE2;html=1;" parent="1" source="1350" target="1367" edge="1">
          <mxGeometry x="-140" y="530" width="100" height="100" as="geometry">
            <mxPoint x="-140" y="630" as="sourcePoint" />
            <mxPoint x="-40" y="530" as="targetPoint" />
          </mxGeometry>
        </mxCell>
        <mxCell id="1379" value="" style="edgeStyle=none;endArrow=none;strokeWidth=3;strokeColor=#64BBE2;html=1;" parent="1" source="1350" target="1358" edge="1">
          <mxGeometry x="-140" y="530" width="100" height="100" as="geometry">
            <mxPoint x="-140" y="630" as="sourcePoint" />
            <mxPoint x="-40" y="530" as="targetPoint" />
          </mxGeometry>
        </mxCell>
        <mxCell id="1380" value="" style="edgeStyle=none;endArrow=none;strokeWidth=3;strokeColor=#64BBE2;html=1;" parent="1" source="1350" target="1368" edge="1">
          <mxGeometry x="-140" y="530" width="100" height="100" as="geometry">
            <mxPoint x="-140" y="630" as="sourcePoint" />
            <mxPoint x="-40" y="530" as="targetPoint" />
          </mxGeometry>
        </mxCell>
        <mxCell id="1381" value="" style="edgeStyle=none;endArrow=none;strokeWidth=3;strokeColor=#64BBE2;html=1;" parent="1" source="1350" target="1369" edge="1">
          <mxGeometry x="-140" y="530" width="100" height="100" as="geometry">
            <mxPoint x="-140" y="630" as="sourcePoint" />
            <mxPoint x="-40" y="530" as="targetPoint" />
          </mxGeometry>
        </mxCell>
        <mxCell id="1382" value="" style="edgeStyle=none;endArrow=none;strokeWidth=3;strokeColor=#64BBE2;html=1;" parent="1" source="1350" target="1370" edge="1">
          <mxGeometry x="-140" y="530" width="100" height="100" as="geometry">
            <mxPoint x="-140" y="630" as="sourcePoint" />
            <mxPoint x="-40" y="530" as="targetPoint" />
          </mxGeometry>
        </mxCell>
        <mxCell id="1383" value="" style="edgeStyle=none;endArrow=none;strokeWidth=3;strokeColor=#64BBE2;html=1;" parent="1" source="1350" target="1371" edge="1">
          <mxGeometry x="-140" y="530" width="100" height="100" as="geometry">
            <mxPoint x="-140" y="630" as="sourcePoint" />
            <mxPoint x="-40" y="530" as="targetPoint" />
          </mxGeometry>
        </mxCell>
        <mxCell id="1384" value="" style="edgeStyle=none;endArrow=none;strokeWidth=3;strokeColor=#64BBE2;html=1;" parent="1" source="1350" target="1372" edge="1">
          <mxGeometry x="-140" y="530" width="100" height="100" as="geometry">
            <mxPoint x="-140" y="630" as="sourcePoint" />
            <mxPoint x="-40" y="530" as="targetPoint" />
          </mxGeometry>
        </mxCell>
        <mxCell id="1385" value="" style="edgeStyle=none;endArrow=none;strokeWidth=3;strokeColor=#64BBE2;html=1;" parent="1" source="1350" target="1373" edge="1">
          <mxGeometry x="-140" y="530" width="100" height="100" as="geometry">
            <mxPoint x="-140" y="630" as="sourcePoint" />
            <mxPoint x="-40" y="530" as="targetPoint" />
          </mxGeometry>
        </mxCell>
        <mxCell id="1386" value="" style="edgeStyle=none;endArrow=none;strokeWidth=3;strokeColor=#64BBE2;html=1;" parent="1" source="1350" target="1374" edge="1">
          <mxGeometry x="-140" y="530" width="100" height="100" as="geometry">
            <mxPoint x="-140" y="630" as="sourcePoint" />
            <mxPoint x="-40" y="530" as="targetPoint" />
          </mxGeometry>
        </mxCell>
        <mxCell id="1387" value="" style="edgeStyle=none;endArrow=none;strokeWidth=3;strokeColor=#64BBE2;html=1;" parent="1" source="1350" target="1375" edge="1">
          <mxGeometry x="-140" y="530" width="100" height="100" as="geometry">
            <mxPoint x="-140" y="630" as="sourcePoint" />
            <mxPoint x="-40" y="530" as="targetPoint" />
          </mxGeometry>
        </mxCell>
        <mxCell id="1412" value="Air Flow Controll" style="rounded=1;fillColor=#f08e81;strokeColor=none;strokeWidth=3;shadow=0;html=1;fontColor=#FFFFFF;" parent="1" vertex="1">
          <mxGeometry x="1240" y="790" width="120" height="40" as="geometry" />
        </mxCell>
        <mxCell id="1418" value="Fuel Injector 1" style="rounded=1;fillColor=#f08e81;strokeColor=none;strokeWidth=3;shadow=0;html=1;fontColor=#FFFFFF;" parent="1" vertex="1">
          <mxGeometry x="1090" y="680" width="120" height="40" as="geometry" />
        </mxCell>
        <mxCell id="1419" value="Fuel Injector 2" style="rounded=1;fillColor=#f08e81;strokeColor=none;strokeWidth=3;shadow=0;html=1;fontColor=#FFFFFF;" parent="1" vertex="1">
          <mxGeometry x="1240" y="680" width="120" height="40" as="geometry" />
        </mxCell>
        <mxCell id="1421" value="Fuel Pump" style="rounded=1;fillColor=#f08e81;strokeColor=none;strokeWidth=3;shadow=0;html=1;fontColor=#FFFFFF;" parent="1" vertex="1">
          <mxGeometry x="1090" y="895" width="120" height="40" as="geometry" />
        </mxCell>
        <mxCell id="1422" value="Lambda Heat" style="rounded=1;fillColor=#f08e81;strokeColor=none;strokeWidth=3;shadow=0;html=1;fontColor=#FFFFFF;" parent="1" vertex="1">
          <mxGeometry x="1240" y="895" width="120" height="40" as="geometry" />
        </mxCell>
        <mxCell id="1429" value="" style="edgeStyle=none;endArrow=none;strokeWidth=3;strokeColor=#F08E81;html=1;" parent="1" source="1352" target="1418" edge="1">
          <mxGeometry x="-590" y="500" width="100" height="100" as="geometry">
            <mxPoint x="-590" y="600" as="sourcePoint" />
            <mxPoint x="-490" y="500" as="targetPoint" />
          </mxGeometry>
        </mxCell>
        <mxCell id="1430" value="" style="edgeStyle=none;endArrow=none;strokeWidth=3;strokeColor=#F08E81;html=1;" parent="1" source="1352" target="1419" edge="1">
          <mxGeometry x="-590" y="500" width="100" height="100" as="geometry">
            <mxPoint x="-590" y="600" as="sourcePoint" />
            <mxPoint x="-490" y="500" as="targetPoint" />
          </mxGeometry>
        </mxCell>
        <mxCell id="1431" value="" style="edgeStyle=none;endArrow=none;strokeWidth=3;strokeColor=#F08E81;html=1;" parent="1" source="1352" target="1412" edge="1">
          <mxGeometry x="-590" y="500" width="100" height="100" as="geometry">
            <mxPoint x="-590" y="600" as="sourcePoint" />
            <mxPoint x="-490" y="500" as="targetPoint" />
          </mxGeometry>
        </mxCell>
        <mxCell id="1432" value="" style="edgeStyle=none;endArrow=none;strokeWidth=3;strokeColor=#F08E81;html=1;" parent="1" source="1352" target="1422" edge="1">
          <mxGeometry x="-590" y="500" width="100" height="100" as="geometry">
            <mxPoint x="-590" y="600" as="sourcePoint" />
            <mxPoint x="-490" y="500" as="targetPoint" />
          </mxGeometry>
        </mxCell>
        <mxCell id="1433" value="" style="edgeStyle=none;endArrow=none;strokeWidth=3;strokeColor=#F08E81;html=1;" parent="1" source="1352" target="1421" edge="1">
          <mxGeometry x="-590" y="500" width="100" height="100" as="geometry">
            <mxPoint x="-590" y="600" as="sourcePoint" />
            <mxPoint x="-490" y="500" as="targetPoint" />
          </mxGeometry>
        </mxCell>
        <mxCell id="1514" style="edgeStyle=orthogonalEdgeStyle;rounded=0;html=1;exitX=0.75;exitY=0;entryX=0.75;entryY=0;startArrow=none;startFill=0;endArrow=block;endFill=1;jettySize=auto;orthogonalLoop=1;strokeColor=#12aab5;strokeWidth=6;fontSize=20;fontColor=#2F5B7C;" parent="1" edge="1">
          <mxGeometry relative="1" as="geometry">
            <mxPoint x="1040" y="765" as="sourcePoint" />
            <mxPoint x="1040" y="765" as="targetPoint" />
          </mxGeometry>
        </mxCell>
        <mxCell id="1515" value="MCU Controller" style="ellipse;whiteSpace=wrap;html=1;shadow=0;fontFamily=Helvetica;fontSize=30;fontColor=#2F5B7C;align=center;strokeColor=#2F5B7C;strokeWidth=6;fillColor=#FFFFFF;fontStyle=1;gradientColor=none;" parent="1" vertex="1">
          <mxGeometry x="860" y="734.12" width="161" height="141.75" as="geometry" />
        </mxCell>
        <mxCell id="IlFDNtvVkZBm-ST1IF_V-1543" value="TBI Position" style="rounded=1;fillColor=#64BBE2;strokeColor=none;strokeWidth=3;shadow=0;html=1;fontColor=#FFFFFF;" vertex="1" parent="1">
          <mxGeometry x="810" y="960" width="130" height="40" as="geometry" />
        </mxCell>
        <mxCell id="IlFDNtvVkZBm-ST1IF_V-1544" value="" style="edgeStyle=none;endArrow=none;strokeWidth=3;strokeColor=#64BBE2;html=1;" edge="1" parent="1" source="1350" target="IlFDNtvVkZBm-ST1IF_V-1543">
          <mxGeometry x="-130" y="540" width="100" height="100" as="geometry">
            <mxPoint x="727.7050119749138" y="786.3262888219383" as="sourcePoint" />
            <mxPoint x="868.2" y="710" as="targetPoint" />
          </mxGeometry>
        </mxCell>
      </root>
    </mxGraphModel>
  </diagram>
</mxfile>
